<mxfile host="app.diagrams.net" modified="2022-05-28T23:21:39.313Z" agent="5.0 (Windows)" etag="Xw2pZ1qMe38jARgek-h_" version="18.1.3" type="github">
  <diagram id="3iQrDaqClbg-zedRjQRF" name="Page-1">
    <mxGraphModel dx="1510" dy="947" grid="1" gridSize="10" guides="1" tooltips="1" connect="1" arrows="1" fold="1" page="1" pageScale="1" pageWidth="1169" pageHeight="827" math="0" shadow="0">
      <root>
        <mxCell id="0" />
        <mxCell id="1" parent="0" />
        <mxCell id="YovMgzdDafOrL7yCnXDI-2" value="" style="rounded=1;whiteSpace=wrap;html=1;" vertex="1" parent="1">
          <mxGeometry x="10" y="10" width="570" height="390" as="geometry" />
        </mxCell>
        <mxCell id="YovMgzdDafOrL7yCnXDI-5" value="&lt;div style=&quot;color: rgb(0, 0, 0); background-color: rgb(255, 255, 255); font-family: Consolas, &amp;quot;Courier New&amp;quot;, monospace; font-weight: normal; font-size: 14px; line-height: 19px;&quot;&gt;&lt;div&gt;&lt;span style=&quot;color: #000000;&quot;&gt;@uwuController({&lt;/span&gt;&lt;/div&gt;&lt;div&gt;&lt;span style=&quot;color: #000000;&quot;&gt;&amp;nbsp; &amp;nbsp; selector: &lt;/span&gt;&lt;span style=&quot;color: #a31515;&quot;&gt;&#39;app&#39;&lt;/span&gt;&lt;span style=&quot;color: #000000;&quot;&gt;,&lt;/span&gt;&lt;/div&gt;&lt;div&gt;&lt;span style=&quot;color: #000000;&quot;&gt;&amp;nbsp; &amp;nbsp; styles: [],&lt;/span&gt;&lt;/div&gt;&lt;div&gt;&lt;span style=&quot;color: #000000;&quot;&gt;&amp;nbsp; &amp;nbsp; template: &lt;/span&gt;&lt;span style=&quot;color: #a31515;&quot;&gt;`&lt;/span&gt;&lt;/div&gt;&lt;div&gt;&lt;span style=&quot;color: #a31515;&quot;&gt;&amp;nbsp; &amp;nbsp; &amp;nbsp; &amp;nbsp; &amp;lt;button (click)=&quot;this.changeValue()&quot;&amp;gt;Change Value&amp;lt;/button&amp;gt;&lt;/span&gt;&lt;/div&gt;&lt;div&gt;&lt;span style=&quot;color: #a31515;&quot;&gt;&amp;nbsp; &amp;nbsp; &amp;nbsp; &amp;nbsp; &amp;lt;div&amp;gt;{{this.a.b.c}}&amp;lt;/div&amp;gt;&lt;/span&gt;&lt;/div&gt;&lt;div&gt;&lt;span style=&quot;color: #a31515;&quot;&gt;&amp;nbsp; &amp;nbsp; `&lt;/span&gt;&lt;span style=&quot;color: #000000;&quot;&gt;,&lt;/span&gt;&lt;/div&gt;&lt;div&gt;&lt;span style=&quot;color: #000000;&quot;&gt;})&lt;/span&gt;&lt;/div&gt;&lt;div&gt;&lt;span style=&quot;color: #0000ff;&quot;&gt;export&lt;/span&gt;&lt;span style=&quot;color: #000000;&quot;&gt; &lt;/span&gt;&lt;span style=&quot;color: #0000ff;&quot;&gt;class&lt;/span&gt;&lt;span style=&quot;color: #000000;&quot;&gt; AppController {&lt;/span&gt;&lt;/div&gt;&lt;div&gt;&lt;span style=&quot;color: #000000;&quot;&gt;&amp;nbsp; &amp;nbsp; changeValue() {&lt;/span&gt;&lt;/div&gt;&lt;div&gt;&lt;span style=&quot;color: #000000;&quot;&gt;&amp;nbsp; &amp;nbsp; &amp;nbsp; &amp;nbsp; &lt;/span&gt;&lt;span style=&quot;color: #0000ff;&quot;&gt;this&lt;/span&gt;&lt;span style=&quot;color: #000000;&quot;&gt;.a = &lt;/span&gt;&lt;span style=&quot;color: #000000;&quot;&gt;{&lt;/span&gt;&lt;span style=&quot;color: #000000;&quot;&gt;b : {c : &lt;/span&gt;&lt;span style=&quot;color: #098658;&quot;&gt;4&lt;/span&gt;&lt;span style=&quot;color: #000000;&quot;&gt;}}&lt;/span&gt;&lt;span style=&quot;color: #000000;&quot;&gt;&lt;/span&gt;&lt;span style=&quot;color: #000000;&quot;&gt;&lt;/span&gt;&lt;span style=&quot;color: #000000;&quot;&gt;&lt;/span&gt;&lt;span style=&quot;color: #000000;&quot;&gt;&lt;/span&gt;&lt;/div&gt;&lt;div&gt;&lt;span style=&quot;color: #000000;&quot;&gt;&amp;nbsp; &amp;nbsp; }&lt;/span&gt;&lt;/div&gt;&lt;div&gt;&lt;span style=&quot;color: #000000;&quot;&gt;&amp;nbsp; &amp;nbsp; a = {&lt;/span&gt;&lt;/div&gt;&lt;div&gt;&lt;span style=&quot;color: #000000;&quot;&gt;&amp;nbsp; &amp;nbsp; &amp;nbsp; &amp;nbsp; b : {&lt;/span&gt;&lt;/div&gt;&lt;div&gt;&lt;span style=&quot;color: #000000;&quot;&gt;&amp;nbsp; &amp;nbsp; &amp;nbsp; &amp;nbsp; &amp;nbsp; &amp;nbsp; c : &lt;/span&gt;&lt;span style=&quot;color: #098658;&quot;&gt;2&lt;/span&gt;&lt;/div&gt;&lt;div&gt;&lt;span style=&quot;color: #000000;&quot;&gt;&amp;nbsp; &amp;nbsp; &amp;nbsp; &amp;nbsp; }&lt;/span&gt;&lt;/div&gt;&lt;div&gt;&lt;span style=&quot;color: #000000;&quot;&gt;&amp;nbsp; &amp;nbsp; };&lt;/span&gt;&lt;/div&gt;&lt;div&gt;&lt;span style=&quot;color: #000000;&quot;&gt;}&lt;/span&gt;&lt;/div&gt;&lt;/div&gt;" style="text;whiteSpace=wrap;html=1;" vertex="1" parent="1">
          <mxGeometry x="30" y="30" width="530" height="360" as="geometry" />
        </mxCell>
        <mxCell id="YovMgzdDafOrL7yCnXDI-7" value="" style="rounded=1;whiteSpace=wrap;html=1;" vertex="1" parent="1">
          <mxGeometry x="98" y="430" width="400" height="270" as="geometry" />
        </mxCell>
        <mxCell id="YovMgzdDafOrL7yCnXDI-20" style="edgeStyle=orthogonalEdgeStyle;curved=1;rounded=0;orthogonalLoop=1;jettySize=auto;html=1;exitX=1;exitY=0.25;exitDx=0;exitDy=0;entryX=1;entryY=0.5;entryDx=0;entryDy=0;fontSize=25;" edge="1" parent="1" source="YovMgzdDafOrL7yCnXDI-9" target="YovMgzdDafOrL7yCnXDI-7">
          <mxGeometry relative="1" as="geometry" />
        </mxCell>
        <mxCell id="YovMgzdDafOrL7yCnXDI-9" value="&lt;p style=&quot;line-height: 1.1;&quot;&gt;&lt;/p&gt;&lt;h1 align=&quot;center&quot;&gt;BindPack&lt;/h1&gt;&lt;p style=&quot;font-size: 24px;&quot; align=&quot;right&quot;&gt;&lt;font style=&quot;font-size: 24px;&quot;&gt;&quot;this.a&quot;: Action on c&lt;font style=&quot;font-size: 24px;&quot;&gt;hange a&lt;br&gt;&lt;/font&gt;&lt;/font&gt;&lt;/p&gt;&lt;p style=&quot;font-size: 24px;&quot; align=&quot;right&quot;&gt;&lt;font style=&quot;font-size: 24px;&quot;&gt;&quot;this.a.b&quot;: Action on change a.b&lt;br&gt;&lt;/font&gt;&lt;/p&gt;&lt;p style=&quot;font-size: 24px;&quot; align=&quot;right&quot;&gt;&lt;font style=&quot;font-size: 24px;&quot;&gt;&quot;this.a.b.c&quot;: Action on chang&lt;/font&gt;&lt;font style=&quot;font-size: 24px;&quot;&gt;e a.b.c&lt;/font&gt;&lt;br&gt;&lt;/p&gt;&lt;p&gt;&lt;/p&gt;" style="text;html=1;strokeColor=none;fillColor=none;spacing=5;spacingTop=-20;whiteSpace=wrap;overflow=hidden;rounded=0;fontSize=25;align=right;" vertex="1" parent="1">
          <mxGeometry x="98" y="430" width="400" height="260" as="geometry" />
        </mxCell>
        <mxCell id="YovMgzdDafOrL7yCnXDI-11" value="" style="shape=image;verticalLabelPosition=bottom;labelBackgroundColor=default;verticalAlign=top;aspect=fixed;imageAspect=0;image=https://www.icmetl.org/wp-content/uploads/2020/11/user-icon-human-person-sign-vector-10206693.png;" vertex="1" parent="1">
          <mxGeometry x="810" y="10" width="170" height="170" as="geometry" />
        </mxCell>
        <mxCell id="YovMgzdDafOrL7yCnXDI-12" value="" style="shape=flexArrow;endArrow=classic;html=1;rounded=0;fontSize=25;exitX=0.5;exitY=1;exitDx=0;exitDy=0;" edge="1" parent="1" source="YovMgzdDafOrL7yCnXDI-11" target="YovMgzdDafOrL7yCnXDI-13">
          <mxGeometry width="50" height="50" relative="1" as="geometry">
            <mxPoint x="630" y="390" as="sourcePoint" />
            <mxPoint x="895" y="240" as="targetPoint" />
          </mxGeometry>
        </mxCell>
        <mxCell id="YovMgzdDafOrL7yCnXDI-16" style="edgeStyle=orthogonalEdgeStyle;rounded=0;orthogonalLoop=1;jettySize=auto;html=1;entryX=1;entryY=0.5;entryDx=0;entryDy=0;fontSize=25;" edge="1" parent="1" source="YovMgzdDafOrL7yCnXDI-13" target="YovMgzdDafOrL7yCnXDI-15">
          <mxGeometry relative="1" as="geometry" />
        </mxCell>
        <mxCell id="YovMgzdDafOrL7yCnXDI-13" value="Press Button" style="rounded=1;whiteSpace=wrap;html=1;fontSize=25;arcSize=50;" vertex="1" parent="1">
          <mxGeometry x="817.5" y="230" width="155" height="60" as="geometry" />
        </mxCell>
        <mxCell id="YovMgzdDafOrL7yCnXDI-18" value="" style="edgeStyle=orthogonalEdgeStyle;rounded=0;orthogonalLoop=1;jettySize=auto;html=1;fontSize=25;" edge="1" parent="1" source="YovMgzdDafOrL7yCnXDI-15" target="YovMgzdDafOrL7yCnXDI-17">
          <mxGeometry relative="1" as="geometry" />
        </mxCell>
        <mxCell id="YovMgzdDafOrL7yCnXDI-15" value="Changing this.a" style="rounded=0;whiteSpace=wrap;html=1;fontSize=25;" vertex="1" parent="1">
          <mxGeometry x="640" y="230" width="120" height="60" as="geometry" />
        </mxCell>
        <mxCell id="YovMgzdDafOrL7yCnXDI-19" style="edgeStyle=orthogonalEdgeStyle;rounded=0;orthogonalLoop=1;jettySize=auto;html=1;entryX=1;entryY=0.25;entryDx=0;entryDy=0;fontSize=25;curved=1;" edge="1" parent="1" source="YovMgzdDafOrL7yCnXDI-17" target="YovMgzdDafOrL7yCnXDI-9">
          <mxGeometry relative="1" as="geometry" />
        </mxCell>
        <mxCell id="YovMgzdDafOrL7yCnXDI-17" value="&lt;div&gt;Dispatching&lt;/div&gt;&lt;div&gt;event&lt;br&gt;&lt;/div&gt;" style="whiteSpace=wrap;html=1;fontSize=25;rounded=0;" vertex="1" parent="1">
          <mxGeometry x="630" y="330" width="140" height="60" as="geometry" />
        </mxCell>
        <mxCell id="YovMgzdDafOrL7yCnXDI-21" style="edgeStyle=orthogonalEdgeStyle;curved=1;rounded=0;orthogonalLoop=1;jettySize=auto;html=1;exitX=1.002;exitY=0.524;exitDx=0;exitDy=0;fontSize=25;exitPerimeter=0;" edge="1" parent="1" source="YovMgzdDafOrL7yCnXDI-9">
          <mxGeometry relative="1" as="geometry">
            <mxPoint x="508" y="505" as="sourcePoint" />
            <mxPoint x="500" y="610" as="targetPoint" />
          </mxGeometry>
        </mxCell>
        <mxCell id="YovMgzdDafOrL7yCnXDI-22" style="edgeStyle=orthogonalEdgeStyle;curved=1;rounded=0;orthogonalLoop=1;jettySize=auto;html=1;exitX=1.004;exitY=0.699;exitDx=0;exitDy=0;fontSize=25;exitPerimeter=0;" edge="1" parent="1" source="YovMgzdDafOrL7yCnXDI-9">
          <mxGeometry relative="1" as="geometry">
            <mxPoint x="508.79999999999995" y="576.24" as="sourcePoint" />
            <mxPoint x="500" y="670" as="targetPoint" />
          </mxGeometry>
        </mxCell>
        <mxCell id="YovMgzdDafOrL7yCnXDI-25" style="edgeStyle=orthogonalEdgeStyle;curved=1;rounded=0;orthogonalLoop=1;jettySize=auto;html=1;entryX=1.013;entryY=0.925;entryDx=0;entryDy=0;entryPerimeter=0;fontSize=24;startArrow=classic;startFill=1;endArrow=none;endFill=0;" edge="1" parent="1" source="YovMgzdDafOrL7yCnXDI-24" target="YovMgzdDafOrL7yCnXDI-9">
          <mxGeometry relative="1" as="geometry" />
        </mxCell>
        <mxCell id="YovMgzdDafOrL7yCnXDI-27" style="edgeStyle=orthogonalEdgeStyle;curved=1;rounded=0;orthogonalLoop=1;jettySize=auto;html=1;entryX=0.5;entryY=0;entryDx=0;entryDy=0;fontSize=24;startArrow=none;startFill=0;endArrow=classic;endFill=1;" edge="1" parent="1" source="YovMgzdDafOrL7yCnXDI-24" target="YovMgzdDafOrL7yCnXDI-26">
          <mxGeometry relative="1" as="geometry" />
        </mxCell>
        <mxCell id="YovMgzdDafOrL7yCnXDI-24" value="Changes value" style="rounded=0;whiteSpace=wrap;html=1;fontSize=24;" vertex="1" parent="1">
          <mxGeometry x="640" y="440" width="120" height="60" as="geometry" />
        </mxCell>
        <mxCell id="YovMgzdDafOrL7yCnXDI-26" value="Show changed value" style="rounded=1;whiteSpace=wrap;html=1;fontSize=25;arcSize=50;" vertex="1" parent="1">
          <mxGeometry x="793.75" y="540" width="202.5" height="65" as="geometry" />
        </mxCell>
        <mxCell id="YovMgzdDafOrL7yCnXDI-28" value="" style="shape=image;verticalLabelPosition=bottom;labelBackgroundColor=default;verticalAlign=top;aspect=fixed;imageAspect=0;image=https://www.icmetl.org/wp-content/uploads/2020/11/user-icon-human-person-sign-vector-10206693.png;" vertex="1" parent="1">
          <mxGeometry x="810" y="650" width="170" height="170" as="geometry" />
        </mxCell>
        <mxCell id="YovMgzdDafOrL7yCnXDI-29" value="" style="shape=flexArrow;endArrow=classic;html=1;rounded=0;fontSize=25;exitX=0.5;exitY=1;exitDx=0;exitDy=0;entryX=0.5;entryY=0;entryDx=0;entryDy=0;" edge="1" parent="1" source="YovMgzdDafOrL7yCnXDI-26" target="YovMgzdDafOrL7yCnXDI-28">
          <mxGeometry width="50" height="50" relative="1" as="geometry">
            <mxPoint x="905" y="190" as="sourcePoint" />
            <mxPoint x="905" y="240" as="targetPoint" />
          </mxGeometry>
        </mxCell>
      </root>
    </mxGraphModel>
  </diagram>
</mxfile>
